<svg xmlns="http://www.w3.org/2000/svg" fill="currentColor" xmlns:xlink="http://www.w3.org/1999/xlink" version="1.1" x="0px" y="0px" viewBox="0 0 512 512" style="enable-background:new 0 0 512 512;" xml:space="preserve">

    <circle cx="216" cy="40" r="8" />
    <rect x="216" y="96" width="16" height="16" />
    <rect x="192" y="136" width="16" height="16" />
    <rect x="32" y="184" width="16" height="16" />
    <rect x="360" y="296" width="16" height="16" />
    <rect x="424" y="296" width="16" height="16" />
    <rect x="464" y="264" width="16" height="16" />
    <rect x="480" y="320" width="16" height="16" />
    <rect x="304" y="480" width="16" height="16" />
    <path d="M275.3,352h9.6c3.3,0,6.5,0.8,9.4,2.2l10.5,5.3c2.4,1.2,5.4,0.2,6.6-2.2c0.3-0.7,0.5-1.4,0.5-2.2v-22.1  c0-2.7-2.2-4.9-4.9-4.9c-0.8,0-1.5,0.2-2.2,0.5l-10.5,5.3c-2.9,1.5-6.1,2.2-9.4,2.2h-9.6c-4.2,0-8.4-1.1-12-3.2  c-2.1-18.4-9.6-35.8-21.4-50l11.7-11.7c4.5-4.5,10.6-7,17-7h10.7c4.4,0,8-3.6,8-8c0-2.1-0.8-4.2-2.3-5.7L261.7,225  c-3.1-3.1-8.2-3.1-11.3,0c-1.5,1.5-2.3,3.5-2.3,5.7v10.7c0,6.4-2.5,12.5-7,17l-11.7,11.7c-14.2-11.8-31.6-19.3-50-21.4  c-2.1-3.6-3.2-7.8-3.2-12v-9.6c0-3.3,0.8-6.5,2.2-9.4l5.3-10.5c1.2-2.4,0.2-5.4-2.2-6.6c-0.7-0.3-1.4-0.5-2.2-0.5h-22.1  c-2.7,0-4.9,2.2-4.9,4.9c0,0.8,0.2,1.5,0.5,2.2l5.3,10.5c1.5,2.9,2.2,6.1,2.2,9.4v9.6c0,4.2-1.1,8.4-3.2,12  c-18.4,2.1-35.8,9.6-50,21.4L95,258.3c-4.5-4.5-7-10.6-7-17v-10.7c0-4.4-3.6-8-8-8c-2.1,0-4.2,0.8-5.7,2.3L49,250.3  c-3.1,3.1-3.1,8.2,0,11.3c1.5,1.5,3.5,2.3,5.7,2.3h10.7c6.4,0,12.5,2.5,17,7l11.7,11.7c-11.8,14.2-19.3,31.6-21.4,50  c-3.6,2.1-7.8,3.2-12,3.2h-9.6c-3.3,0-6.5-0.8-9.4-2.2l-10.5-5.3c-2.4-1.2-5.4-0.2-6.6,2.2c-0.3,0.7-0.5,1.4-0.5,2.2v22.1  c0,2.7,2.2,4.9,4.9,4.9c0.8,0,1.5-0.2,2.2-0.5l10.5-5.3c2.9-1.5,6.1-2.2,9.4-2.2h9.6c4.2,0,8.4,1.1,12,3.2  c2.1,18.4,9.6,35.8,21.4,50L82.3,417c-4.5,4.5-10.6,7-17,7H54.6c-4.4,0-8,3.6-8,8c0,2.1,0.8,4.2,2.3,5.7L74.3,463  c3.1,3.1,8.2,3.1,11.3,0c1.5-1.5,2.3-3.5,2.3-5.7v-10.7c0-6.4,2.5-12.5,7-17l11.7-11.7c14.2,11.8,31.6,19.3,50,21.4  c2.1,3.6,3.2,7.8,3.2,12v9.6c0,3.3-0.8,6.5-2.2,9.4l-5.3,10.5c-1.2,2.4-0.2,5.4,2.2,6.6c0.7,0.3,1.4,0.5,2.2,0.5h22.1  c2.7,0,4.9-2.2,4.9-4.9c0-0.8-0.2-1.5-0.5-2.2l-5.3-10.5c-1.5-2.9-2.2-6.1-2.2-9.4v-9.6c0-4.2,1.1-8.4,3.2-12  c18.4-2.1,35.8-9.6,50-21.4l11.7,11.7c4.5,4.5,7,10.6,7,17v10.7c0,4.4,3.6,8,8,8c2.1,0,4.2-0.8,5.7-2.3l25.4-25.4  c3.1-3.1,3.1-8.2,0-11.3c-1.5-1.5-3.5-2.3-5.7-2.3h-10.7c-6.4,0-12.5-2.5-17-7l-11.7-11.7c11.8-14.2,19.3-31.6,21.4-50  C267,353.1,271.1,352,275.3,352z M152,368h-16v-16h16V368z M160,336h-16v-16h16V336z M192,360h-16v-16h16V360z" />
    <path d="M475,391.2l14.3-8.2l-8-13.9l-14.3,8.3c-3.5-4.6-7.7-8.8-12.3-12.3l8.3-14.3l-13.9-8l-8.2,14.3c-5.4-2.3-11-3.8-16.8-4.5  V336h-16v16.5c-5.8,0.7-11.5,2.2-16.8,4.5l-8.2-14.3l-13.9,8l8.3,14.3c-4.6,3.5-8.8,7.7-12.3,12.3l-14.3-8.3l-8,13.9l14.3,8.2  c-2.3,5.4-3.8,11-4.5,16.8H336v16h16.5c0.7,5.8,2.2,11.5,4.5,16.8l-14.3,8.2l8,13.9l14.3-8.3c3.5,4.6,7.7,8.8,12.3,12.3l-8.3,14.3  l13.9,8l8.2-14.3c5.4,2.3,11,3.8,16.8,4.5V496h16v-16.5c5.8-0.7,11.5-2.2,16.8-4.5l8.2,14.3l13.9-8l-8.3-14.3  c4.6-3.5,8.8-7.7,12.3-12.3l14.3,8.3l8-13.9l-14.3-8.2c2.3-5.4,3.8-11,4.5-16.8H496v-16h-16.5C478.8,402.2,477.3,396.5,475,391.2z   M400,432h-16v-16h16V432z M408,400h-16v-16h16V400z M432,448h-16v-16h16V448z M440,416h-16v-16h16V416z" />
    <path d="M30.7,142.9l14.3-8.3c3.5,4.6,7.7,8.8,12.3,12.3l-8.3,14.3l13.9,8l8.3-14.3c5.4,2.3,11,3.8,16.8,4.5V176h16v-16.5  c5.8-0.7,11.4-2.2,16.8-4.5l8.3,14.3l13.9-8l-8.3-14.3c4.6-3.5,8.8-7.7,12.3-12.3l14.3,8.3l8-13.9l-14.3-8.3  c2.3-5.4,3.8-11,4.5-16.8H176V88h-16.5c-0.7-5.8-2.2-11.4-4.5-16.8l14.3-8.3l-8-13.9L147,57.3c-3.5-4.6-7.7-8.8-12.3-12.3l8.3-14.3  l-13.9-8L120.8,37c-5.4-2.3-11-3.8-16.8-4.5V16H88v16.5c-5.8,0.7-11.4,2.2-16.8,4.5l-8.3-14.3l-13.9,8L57.3,45  c-4.6,3.5-8.8,7.7-12.3,12.3l-14.3-8.3l-8,13.9L37,71.2c-2.3,5.4-3.8,11-4.5,16.8H16v16h16.5c0.7,5.8,2.2,11.4,4.5,16.8l-14.3,8.3  L30.7,142.9z M128,96v16h-16V96H128z M96,64h16v16H96V64z M96,112v16H80v-16H96z M64,80h16v16H64V80z" />
    <path d="M368,220.9c0,3.3-0.8,6.5-2.2,9.4l-5.3,10.5c-1.2,2.4-0.2,5.4,2.2,6.6c0.7,0.3,1.4,0.5,2.2,0.5h22.1c2.7,0,4.9-2.2,4.9-4.9  c0-0.8-0.2-1.5-0.5-2.2l-5.3-10.5c-1.4-2.9-2.2-6.1-2.2-9.4c0-1.8,0.2-3.6,0.5-5.4c15.1-1.6,29.4-7.5,41.3-17l7.1,7.1  c4.5,4.5,7,10.6,7,17v2.7c0,4.4,3.6,8,8,8c2.1,0,4.2-0.8,5.7-2.3l17.4-17.4c3.1-3.1,3.1-8.2,0-11.3c-1.5-1.5-3.5-2.3-5.7-2.3h-2.7  c-6.4,0-12.5-2.5-17-7l-7.1-7.1c9.5-11.9,15.4-26.2,17-41.3c1.8-0.4,3.6-0.5,5.4-0.5c3.3,0,6.5,0.8,9.4,2.2l10.5,5.3  c2.4,1.2,5.4,0.2,6.6-2.2c0.3-0.7,0.5-1.4,0.5-2.2v-22.1c0-2.7-2.2-4.9-4.9-4.9c-0.8,0-1.5,0.2-2.2,0.5l-10.5,5.3  c-2.9,1.5-6.1,2.2-9.4,2.2c-1.8,0-3.6-0.2-5.4-0.5c-1.6-15.1-7.5-29.4-17-41.3l7.1-7.1c4.5-4.5,10.6-7,17-7h2.7c4.4,0,8-3.6,8-8  c0-2.1-0.8-4.2-2.3-5.7L453.7,41c-3.1-3.1-8.2-3.1-11.3,0c-1.5,1.5-2.3,3.5-2.3,5.7v2.7c0,6.4-2.5,12.5-7,17l-7.1,7.1  c-11.9-9.5-26.2-15.4-41.3-17c-0.4-1.8-0.5-3.6-0.5-5.4c0-3.3,0.8-6.5,2.2-9.4l5.3-10.5c1.2-2.4,0.2-5.4-2.2-6.6  c-0.7-0.3-1.4-0.5-2.2-0.5h-22.1c-2.7,0-4.9,2.2-4.9,4.9c0,0.8,0.2,1.5,0.5,2.2l5.3,10.5c1.4,2.9,2.2,6.1,2.2,9.4  c0,1.8-0.2,3.6-0.5,5.4c-15.1,1.6-29.4,7.5-41.3,17l-7.1-7.1c-4.5-4.5-7-10.6-7-17v-2.7c0-4.4-3.6-8-8-8c-2.1,0-4.2,0.8-5.7,2.3  l-17.6,17.6c-3,3-3,7.9,0,10.9c0,0,0,0,0,0l0.2,0.2c1.5,1.5,3.6,2.4,5.7,2.4h0l2.7,0h0c6.4,0,12.5,2.5,17,7l7.1,7.1  c-9.5,11.9-15.4,26.2-17,41.3c-1.8,0.4-3.6,0.5-5.4,0.5c-3.3,0-6.5-0.8-9.4-2.2l-10.5-5.3c-2.4-1.2-5.4-0.2-6.6,2.2  c-0.3,0.7-0.5,1.4-0.5,2.2v22.1c0,2.7,2.2,4.9,4.9,4.9c0.8,0,1.5-0.2,2.2-0.5l10.5-5.3c2.9-1.5,6.1-2.2,9.4-2.2  c1.8,0,3.6,0.2,5.4,0.5c1.6,15.1,7.5,29.4,17,41.3l-7.1,7.1c-4.5,4.5-10.6,7-17,7h-2.7c-4.4,0-8,3.6-8,8c0,2.1,0.8,4.2,2.3,5.7  l17.4,17.4c3.1,3.1,8.2,3.1,11.3,0c1.5-1.5,2.3-3.5,2.3-5.7v-2.7c0-6.4,2.5-12.5,7-17l7.1-7.1c11.9,9.5,26.2,15.4,41.3,17  C367.8,217.3,368,219.1,368,220.9z" />
</svg>
