<svg xmlns="http://www.w3.org/2000/svg" fill="currentColor" xmlns:xlink="http://www.w3.org/1999/xlink" xml:space="preserve" version="1.1" style="shape-rendering:geometricPrecision;text-rendering:geometricPrecision;image-rendering:optimizeQuality;" viewBox="0 0 333 333" x="0px" y="0px" fill-rule="evenodd" clip-rule="evenodd">
    <defs></defs>
    <g>
        <path class="fil0" d="M223 91c16,7 28,23 29,41 9,-3 27,-10 31,-19 5,-13 1,-32 18,-33 17,-1 19,31 5,53 -6,10 -16,19 -26,27 21,11 30,38 20,60 39,12 30,69 -10,69l-244 0c-20,0 -36,-16 -36,-36 0,-16 10,-30 24,-35 -2,-21 8,-42 26,-53 -40,-15 -62,-71 -47,-82 19,-13 25,7 37,29 7,13 21,19 30,22 1,-21 13,-38 29,-48 17,-58 102,-55 114,5zm-56 37c11,0 19,9 19,19 0,11 -8,20 -19,20 -11,0 -20,-9 -20,-20 0,-10 9,-19 20,-19zm-59 40c0,5 -7,5 -7,0 0,-4 7,-4 7,0zm-35 19c0,7 -11,7 -11,0 0,-8 11,-8 11,0zm27 7c0,5 -8,5 -8,0 0,-5 8,-5 8,0zm-43 53c5,0 9,4 9,9 0,5 -4,9 -9,9 -5,0 -9,-4 -9,-9 0,-5 4,-9 9,-9zm155 -35l0 11c0,15 -22,15 -22,0l0 -11 -50 0 0 2c0,15 -22,15 -22,0l0 -2 -25 0c8,32 38,56 74,56 35,0 65,-24 74,-56l-29 0zm48 -37c2,0 4,2 4,5 0,2 -2,4 -4,4 -3,0 -5,-2 -5,-4 0,-3 2,-5 5,-5zm18 22c3,0 5,2 5,4 0,3 -2,5 -5,5 -2,0 -4,-2 -4,-5 0,-2 2,-4 4,-4zm-18 42c3,0 5,2 5,5 0,2 -2,4 -5,4 -2,0 -4,-2 -4,-4 0,-3 2,-5 4,-5zm36 7c3,0 5,2 5,5 0,2 -2,4 -5,4 -2,0 -4,-2 -4,-4 0,-3 2,-5 4,-5zm-129 -139c22,0 40,18 40,40 0,22 -18,41 -40,41 -23,0 -41,-19 -41,-41 0,-22 18,-40 41,-40z" />
    </g>

</svg>
