<svg xmlns="http://www.w3.org/2000/svg" xmlns:xlink="http://www.w3.org/1999/xlink" xmlns:serif="http://www.serif.com/" viewBox="0 0 64 64" version="1.1" xml:space="preserve" style="" x="0px" y="0px" fill="currentColor" fill-rule="evenodd" clip-rule="evenodd" stroke-linejoin="round" stroke-miterlimit="2">
    <g transform="matrix(1,0,0,1,-400,-80)">
        <g transform="matrix(1,0,0,1,400,80)">
            <rect x="0" y="0" width="64" height="64" style="" fill="none" />
            <g transform="matrix(0.927884,0.535714,-0.625,1.08253,-310.551,-322.172)">
                <path d="M432.549,103.129C429.143,97.572 429.512,92.019 432.925,89.24C436.105,86.65 442.076,86.174 446,89.983C449.924,86.174 455.895,86.65 459.075,89.24C462.488,92.019 462.857,97.569 459.453,103.126C458.536,104.718 457.056,106.319 455.282,107.825C454.55,108.446 453.367,108.441 452.642,107.814C451.918,107.186 451.923,106.172 452.655,105.551C454.118,104.31 455.362,103.007 456.114,101.695L456.138,101.655C457.453,99.512 458.133,97.375 458.133,95.5C458.133,93.886 457.636,92.482 456.504,91.56C454.278,89.748 449.877,89.921 447.652,93.545C447.329,94.071 446.693,94.4 446,94.4C445.307,94.4 444.671,94.071 444.348,93.545C442.123,89.921 437.722,89.748 435.496,91.56C434.364,92.482 433.867,93.886 433.867,95.5C433.867,97.375 434.547,99.512 435.862,101.655L435.886,101.695C437.668,104.804 442.075,107.87 445.999,110.094C446.346,109.897 446.696,109.693 447.047,109.483C447.892,108.978 449.057,109.157 449.646,109.881C450.235,110.606 450.027,111.604 449.181,112.109C448.442,112.55 447.709,112.966 446.999,113.352C446.389,113.683 445.611,113.683 445.001,113.352C440.315,110.808 434.75,106.945 432.549,103.129Z" />
            </g>
            <g transform="matrix(0.729026,-0.195342,0.227899,0.85053,-330.424,47.8631)">
                <path d="M446,89C450.243,85.442 456.319,86.069 459.615,88.753C463.223,91.692 463.747,97.558 460.148,103.435C457.891,107.341 452.215,111.315 447.418,113.919C446.552,114.389 445.448,114.389 444.582,113.919C439.785,111.315 434.109,107.341 431.852,103.435C428.254,97.558 428.777,91.692 432.385,88.753C435.681,86.069 441.757,85.442 446,89ZM446,109.287C449.703,107.154 453.746,104.304 455.411,101.399L455.445,101.342C456.694,99.307 457.35,97.28 457.35,95.5C457.35,94.09 456.954,92.852 455.964,92.047C454.041,90.481 450.268,90.726 448.345,93.858C447.887,94.604 446.984,95.071 446,95.071C445.016,95.071 444.113,94.604 443.655,93.858C441.732,90.726 437.959,90.481 436.036,92.047C435.046,92.852 434.65,94.09 434.65,95.5C434.65,97.28 435.306,99.307 436.555,101.342L436.589,101.399C438.254,104.304 442.297,107.154 446,109.287Z" />
            </g>
        </g>
    </g>

</svg>
