<svg xmlns="http://www.w3.org/2000/svg" xmlns:xlink="http://www.w3.org/1999/xlink" version="1.1" x="0px" y="0px" viewBox="0 0 64 80" fill="currentColor" xml:space="preserve">
    <g display="none">
        <rect x="-19.994" y="-20" display="inline" fill="currentColor" width="20" height="430" />
        <rect x="38.506" y="-437.5" transform="matrix(1.067751e-10 -1 1 1.067751e-10 -25.4943 122.5057)" display="inline" fill="currentColor" width="20" height="1023" />
        <rect x="-390.014" y="-37.668" display="inline" fill="currentColor" width="947.424" height="496.184" />
    </g>
    <g display="none">
        <g display="inline">
            <g>
                <rect x="0" y="8" transform="matrix(4.462190e-11 1 -1 4.462190e-11 64 -1.414257e-09)" fill="currentColor" width="64" height="48" />
            </g>
            <g>
                <rect x="29.805" y="-21.805" transform="matrix(6.505808e-10 1 -1 6.505808e-10 34.1948 -29.8052)" width="4.39" height="48" />
            </g>
            <g>
                <rect x="29.805" y="37.746" transform="matrix(6.505808e-10 1 -1 6.505808e-10 93.7459 29.7459)" fill="currentColor" width="4.39" height="48" />
            </g>
            <g>
                <rect x="15.293" y="43.428" width="33.285" height="1.333" />
            </g>
            <g>
                <rect x="15.293" y="47.428" fill="currentColor" width="33.285" height="1.333" />
            </g>
            <g>
                <rect x="15.293" y="50.095" fill="currentColor" width="33.285" height="1.333" />
            </g>
            <g>
                <rect x="15.293" y="52.762" fill="currentColor" width="33.285" height="1.333" />
            </g>
            <g>
                <path fill="currentColor" d="M15.45,18.07c0.999-0.161,2.302-0.25,3.677-0.25c2.285,0,3.766,0.411,4.926,1.286     c1.25,0.928,2.035,2.409,2.035,4.533c0,2.303-0.839,3.892-1.999,4.874c-1.267,1.053-3.196,1.553-5.552,1.553     c-1.41,0-2.41-0.089-3.087-0.179V18.07z M18.181,27.887c0.231,0.054,0.606,0.054,0.946,0.054c2.462,0.018,4.07-1.339,4.07-4.213     c0.017-2.499-1.446-3.82-3.785-3.82c-0.608,0-1,0.054-1.231,0.107V27.887z" />
                <path fill="currentColor" d="M38.716,23.8c0,3.945-2.392,6.337-5.908,6.337c-3.57,0-5.658-2.695-5.658-6.123     c0-3.605,2.302-6.301,5.855-6.301C36.699,17.713,38.716,20.48,38.716,23.8z M30.023,23.961c0,2.356,1.108,4.016,2.927,4.016     c1.839,0,2.892-1.749,2.892-4.088c0-2.16-1.035-4.016-2.91-4.016C31.094,19.873,30.023,21.622,30.023,23.961z" />
                <path fill="currentColor" d="M49.165,29.601c-0.5,0.25-1.625,0.518-3.089,0.518c-4.158,0-6.301-2.589-6.301-6.016     c0-4.105,2.927-6.39,6.568-6.39c1.411,0,2.481,0.286,2.964,0.536l-0.554,2.16c-0.552-0.233-1.321-0.446-2.285-0.446     c-2.16,0-3.837,1.303-3.837,3.98c0,2.41,1.427,3.927,3.856,3.927c0.821,0,1.731-0.179,2.266-0.393L49.165,29.601z" />
            </g>
        </g>
    </g>
    <g display="none">
        <circle display="inline" fill="currentColor" cx="32" cy="32" r="32" />
        <g display="inline">
            <defs>
                <circle id="b" cx="32" cy="32" r="32" />
            </defs>
            <clipPath id="a">
                <use xlink:href="#b" overflow="visible" />
            </clipPath>
            <polygon clip-path="url(#a)" fill="currentColor" points="48.168,10.491 72.673,34.996 48.927,70.175 36.555,74.088     15.918,53.451   " />
        </g>
        <rect x="10.543" y="15.866" transform="matrix(4.462901e-11 1 -1 4.462901e-11 64.0343 -0.0521)" display="inline" fill="currentColor" width="43" height="32.25" />
        <rect x="30.569" y="-4.159" transform="matrix(6.506767e-10 1 -1 6.506767e-10 44.009 -20.0774)" display="inline" width="2.949" height="32.25" />
        <rect x="30.569" y="35.852" transform="matrix(6.506767e-10 1 -1 6.506767e-10 84.0198 19.9334)" display="inline" fill="currentColor" width="2.949" height="32.25" />
        <rect x="20.818" y="39.67" display="inline" width="22.363" height="0.896" />
        <rect x="20.818" y="42.357" display="inline" fill="currentColor" width="22.363" height="0.896" />
        <rect x="20.818" y="44.149" display="inline" fill="currentColor" width="22.363" height="0.896" />
        <rect x="20.818" y="45.94" display="inline" fill="currentColor" width="22.363" height="0.896" />
        <text transform="matrix(1 0 0 1 20.1321 30.6076)" display="inline" fill="currentColor" font-family="'MyriadPro-Bold'" font-size="12px">DOC</text>
    </g>
    <g display="none">
        <g display="inline">
            <g>
                <path d="M15.45,16.07c0.999-0.161,2.302-0.25,3.677-0.25c2.285,0,3.766,0.411,4.926,1.286c1.25,0.928,2.035,2.409,2.035,4.533     c0,2.303-0.839,3.892-1.999,4.874c-1.267,1.053-3.196,1.553-5.552,1.553c-1.41,0-2.41-0.089-3.087-0.179V16.07z M18.181,25.887     c0.231,0.054,0.606,0.054,0.946,0.054c2.462,0.018,4.07-1.339,4.07-4.213c0.017-2.499-1.446-3.82-3.785-3.82     c-0.608,0-1,0.054-1.231,0.107V25.887z" />
            </g>
            <g>
                <path d="M38.716,21.8c0,3.945-2.392,6.337-5.908,6.337c-3.57,0-5.658-2.695-5.658-6.123c0-3.605,2.302-6.301,5.855-6.301     C36.699,15.713,38.716,18.48,38.716,21.8z M30.023,21.961c0,2.356,1.108,4.016,2.927,4.016c1.839,0,2.892-1.749,2.892-4.088     c0-2.16-1.035-4.016-2.91-4.016C31.094,17.873,30.023,19.622,30.023,21.961z" />
            </g>
            <g>
                <path d="M49.165,27.601c-0.5,0.25-1.625,0.518-3.089,0.518c-4.158,0-6.301-2.589-6.301-6.016c0-4.105,2.927-6.39,6.568-6.39     c1.411,0,2.481,0.286,2.964,0.536l-0.554,2.16c-0.552-0.233-1.321-0.446-2.285-0.446c-2.16,0-3.837,1.303-3.837,3.98     c0,2.41,1.427,3.927,3.856,3.927c0.821,0,1.731-0.179,2.266-0.393L49.165,27.601z" />
            </g>
        </g>
        <g display="inline">
            <g>
                <g>
                    <g>
                        <path d="M55,2v60H9V2H55 M57,0H7v64h50V0L57,0z" />
                    </g>
                </g>
                <g>
                    <line fill="none" stroke="currentColor" stroke-width="2" stroke-miterlimit="10" x1="14.293" y1="41.428" x2="49.578" y2="41.428" />
                </g>
                <g>
                    <line fill="none" stroke="currentColor" stroke-width="2" stroke-miterlimit="10" x1="14.293" y1="46.332" x2="49.578" y2="46.332" />
                </g>
                <g>
                    <line fill="none" stroke="currentColor" stroke-width="2" stroke-miterlimit="10" x1="14.293" y1="51.235" x2="49.578" y2="51.235" />
                </g>
            </g>
        </g>
    </g>
    <g display="none">
        <g display="inline">
            <circle fill="currentColor" cx="32" cy="32" r="32" />
        </g>
        <g display="inline">
            <g>
                <g>
                    <g>
                        <g>
                            <rect x="11" y="4.84" width="42" height="54.32" />
                        </g>
                        <g>
                            <path fill="currentColor" d="M52,5.84v52.32H12V5.84H52 M54,3.84H10v56.32h44V3.84L54,3.84z" />
                        </g>
                    </g>
                </g>
                <g>
                    <g>
                        <rect x="16.418" y="39.297" fill="currentColor" width="31.051" height="2" />
                    </g>
                </g>
                <g>
                    <g>
                        <rect x="16.418" y="43.612" fill="currentColor" width="31.051" height="2" />
                    </g>
                </g>
                <g>
                    <g>
                        <rect x="16.418" y="47.927" fill="currentColor" width="31.051" height="2" />
                    </g>
                </g>
            </g>
            <g>
                <g>
                    <g>
                        <path fill="currentColor" d="M17.436,17.982c0.879-0.141,2.026-0.22,3.236-0.22c2.011,0,3.314,0.361,4.335,1.131       c1.1,0.817,1.791,2.12,1.791,3.989c0,2.027-0.738,3.425-1.759,4.289c-1.115,0.927-2.813,1.367-4.886,1.367       c-1.241,0-2.121-0.079-2.717-0.157V17.982z M19.839,26.621c0.203,0.047,0.533,0.047,0.833,0.047       c2.167,0.016,3.581-1.178,3.581-3.707c0.015-2.199-1.273-3.361-3.331-3.361c-0.535,0-0.88,0.047-1.083,0.094V26.621z" />
                    </g>
                </g>
                <g>
                    <g>
                        <path fill="currentColor" d="M37.91,23.024c0,3.472-2.105,5.577-5.199,5.577c-3.141,0-4.979-2.372-4.979-5.388       c0-3.173,2.026-5.545,5.152-5.545C36.135,17.668,37.91,20.102,37.91,23.024z M30.26,23.166c0,2.073,0.975,3.534,2.576,3.534       c1.618,0,2.545-1.539,2.545-3.597c0-1.901-0.911-3.534-2.561-3.534C31.203,19.568,30.26,21.108,30.26,23.166z" />
                    </g>
                </g>
                <g>
                    <g>
                        <path fill="currentColor" d="M47.105,28.129c-0.44,0.22-1.43,0.456-2.718,0.456c-3.659,0-5.545-2.278-5.545-5.294       c0-3.613,2.576-5.623,5.78-5.623c1.242,0,2.183,0.251,2.608,0.471l-0.487,1.901c-0.486-0.205-1.163-0.393-2.011-0.393       c-1.901,0-3.377,1.147-3.377,3.503c0,2.121,1.256,3.456,3.393,3.456c0.723,0,1.523-0.157,1.994-0.346L47.105,28.129z" />
                    </g>
                </g>
            </g>
        </g>
    </g>
    <g>
        <g>
            <path d="M32.95,24.977c1.839,0,2.892-1.749,2.892-4.088c0-2.16-1.035-4.016-2.91-4.016c-1.839,0-2.91,1.749-2.91,4.088    C30.023,23.317,31.13,24.977,32.95,24.977z" />
            <path d="M57,0H7v64h50V0z M46.344,14.713c1.411,0,2.481,0.286,2.964,0.536l-0.554,2.16c-0.552-0.233-1.321-0.446-2.285-0.446    c-2.16,0-3.837,1.303-3.837,3.98c0,2.41,1.427,3.927,3.856,3.927c0.821,0,1.731-0.179,2.266-0.393l0.411,2.124    c-0.5,0.25-1.625,0.518-3.089,0.518c-4.158,0-6.301-2.589-6.301-6.016C39.776,16.998,42.703,14.713,46.344,14.713z M33.004,14.713    c3.695,0,5.712,2.767,5.712,6.086c0,3.945-2.392,6.337-5.908,6.337c-3.57,0-5.658-2.695-5.658-6.123    C27.149,17.409,29.451,14.713,33.004,14.713z M15.45,15.07c0.999-0.161,2.302-0.25,3.677-0.25c2.285,0,3.766,0.411,4.926,1.286    c1.25,0.928,2.035,2.409,2.035,4.533c0,2.303-0.839,3.892-1.999,4.874c-1.267,1.053-3.196,1.553-5.552,1.553    c-1.41,0-2.41-0.089-3.087-0.179V15.07z M49.578,52.235H14.293v-2h35.285V52.235z M49.578,47.332H14.293v-2h35.285V47.332z     M49.578,42.429H14.293v-2h35.285V42.429z" />
            <path d="M23.197,20.728c0.017-2.499-1.446-3.82-3.785-3.82c-0.608,0-1,0.054-1.231,0.107v7.872    c0.231,0.054,0.606,0.054,0.946,0.054C21.59,24.959,23.197,23.603,23.197,20.728z" />
        </g>
    </g>

</svg>