<svg xmlns="http://www.w3.org/2000/svg" xmlns:xlink="http://www.w3.org/1999/xlink" version="1.1" x="0px" y="0px"  viewBox="0 0 64 80" fill="currentColor" xml:space="preserve">
    <g display="none">
        <rect x="63.995" y="-104.073" display="inline" fill="currentColor" width="20" height="430" />
        <rect x="122.495" y="-437.573" transform="matrix(1.067751e-10 -1 1 1.067751e-10 58.5675 206.4221)" display="inline" fill="currentColor" width="20" height="1023" />
        <rect x="-306.025" y="-121.741" display="inline" fill="currentColor" width="947.424" height="496.184" />
    </g>
    <g display="none">
        <g display="inline">
            <g>
                <rect x="0" y="8" transform="matrix(4.462190e-11 1 -1 4.462190e-11 64.0002 1.792894e-04)" fill="currentColor" width="64" height="48" />
            </g>
            <g>
                <rect x="29.805" y="-21.805" transform="matrix(6.505808e-10 1 -1 6.505808e-10 34.195 -29.805)" width="4.39" height="48" />
            </g>
            <g>
                <rect x="29.805" y="37.746" transform="matrix(6.505808e-10 1 -1 6.505808e-10 93.7461 29.7461)" fill="currentColor" width="4.39" height="48" />
            </g>
            <g>
                <rect x="15.293" y="43.429" width="33.285" height="1.333" />
            </g>
            <g>
                <rect x="15.293" y="47.429" fill="currentColor" width="33.285" height="1.333" />
            </g>
            <g>
                <rect x="15.293" y="50.095" fill="currentColor" width="33.285" height="1.333" />
            </g>
            <g>
                <rect x="15.293" y="52.762" fill="currentColor" width="33.285" height="1.333" />
            </g>
            <g>
                <path fill="currentColor" d="M20.799,17.909h2.712v7.605c0,3.427-1.641,4.624-4.283,4.624c-0.625,0-1.446-0.108-1.981-0.286     l0.304-2.195c0.374,0.125,0.856,0.214,1.391,0.214c1.142,0,1.858-0.517,1.858-2.392V17.909z" />
                <path fill="currentColor" d="M25.604,18.071c0.839-0.144,2.016-0.25,3.676-0.25c1.679,0,2.875,0.321,3.677,0.964     c0.769,0.608,1.286,1.606,1.286,2.785c0,1.177-0.394,2.177-1.108,2.856c-0.927,0.875-2.302,1.267-3.908,1.267     c-0.358,0-0.679-0.017-0.929-0.054v4.302h-2.695V18.071z M28.299,23.533c0.233,0.054,0.517,0.071,0.91,0.071     c1.446,0,2.339-0.733,2.339-1.964c0-1.106-0.767-1.767-2.124-1.767c-0.554,0-0.929,0.054-1.125,0.108V23.533z" />
                <path fill="currentColor" d="M45.852,29.387c-0.839,0.286-2.427,0.679-4.016,0.679c-2.196,0-3.785-0.554-4.891-1.625     c-1.108-1.035-1.714-2.606-1.696-4.374c0.017-3.999,2.927-6.283,6.872-6.283c1.554,0,2.749,0.304,3.339,0.59l-0.571,2.177     c-0.661-0.286-1.483-0.517-2.802-0.517c-2.267,0-3.981,1.285-3.981,3.891c0,2.481,1.552,3.945,3.783,3.945     c0.625,0,1.125-0.071,1.34-0.179v-2.516h-1.858V23.05h4.481V29.387z" />
            </g>
        </g>
    </g>
    <g display="none">
        <circle display="inline" fill="currentColor" cx="32" cy="32" r="32" />
        <g display="inline">
            <defs>
                <circle id="b" cx="32" cy="32" r="32" />
            </defs>
            <clipPath id="a">
                <use xlink:href="#b" overflow="visible" />
            </clipPath>
            <polygon clip-path="url(#a)" fill="currentColor" points="48.168,10.491 72.673,34.996 48.927,70.176 36.555,74.088     15.918,53.451   " />
        </g>
        <rect x="10.543" y="15.866" transform="matrix(4.462901e-11 1 -1 4.462901e-11 64.0345 -0.0519)" display="inline" fill="currentColor" width="43" height="32.25" />
        <rect x="30.569" y="-4.159" transform="matrix(6.506767e-10 1 -1 6.506767e-10 44.0092 -20.0773)" display="inline" width="2.949" height="32.25" />
        <rect x="30.569" y="35.852" transform="matrix(6.506767e-10 1 -1 6.506767e-10 84.02 19.9336)" display="inline" fill="currentColor" width="2.949" height="32.25" />
        <rect x="20.818" y="39.67" display="inline" width="22.363" height="0.896" />
        <rect x="20.818" y="42.357" display="inline" fill="currentColor" width="22.363" height="0.896" />
        <rect x="20.818" y="44.149" display="inline" fill="currentColor" width="22.363" height="0.896" />
        <rect x="20.818" y="45.941" display="inline" fill="currentColor" width="22.363" height="0.896" />
        <text transform="matrix(1 0 0 1 22.1424 30.6077)" display="inline" fill="currentColor" font-family="'MyriadPro-Bold'" font-size="12px">JPG</text>
    </g>
    <g display="none">
        <g display="inline">
            <g>
                <path d="M20.799,15.909h2.712v7.605c0,3.427-1.641,4.624-4.283,4.624c-0.625,0-1.446-0.108-1.981-0.286l0.304-2.195     c0.374,0.125,0.856,0.214,1.391,0.214c1.142,0,1.858-0.517,1.858-2.392V15.909z" />
            </g>
            <g>
                <path d="M25.604,16.071c0.839-0.144,2.016-0.25,3.676-0.25c1.679,0,2.875,0.321,3.677,0.964c0.769,0.608,1.286,1.606,1.286,2.785     c0,1.177-0.394,2.177-1.108,2.856c-0.927,0.875-2.302,1.267-3.908,1.267c-0.358,0-0.679-0.017-0.929-0.054v4.302h-2.695V16.071z      M28.299,21.533c0.233,0.054,0.517,0.071,0.91,0.071c1.446,0,2.339-0.733,2.339-1.964c0-1.106-0.767-1.767-2.124-1.767     c-0.554,0-0.929,0.054-1.125,0.108V21.533z" />
            </g>
            <g>
                <path d="M45.852,27.387c-0.839,0.286-2.427,0.679-4.016,0.679c-2.196,0-3.785-0.554-4.891-1.625     c-1.108-1.035-1.714-2.606-1.696-4.374c0.017-3.999,2.927-6.283,6.872-6.283c1.554,0,2.749,0.304,3.339,0.59l-0.571,2.177     c-0.661-0.286-1.483-0.517-2.802-0.517c-2.267,0-3.981,1.285-3.981,3.891c0,2.481,1.552,3.945,3.783,3.945     c0.625,0,1.125-0.071,1.34-0.179v-2.516h-1.858V21.05h4.481V27.387z" />
            </g>
        </g>
        <g display="inline">
            <g>
                <g>
                    <g>
                        <path d="M55,2v60H9V2H55 M57,0H7v64h50V0L57,0z" />
                    </g>
                </g>
                <g>
                    <line fill="none" stroke="currentColor" stroke-width="2" stroke-miterlimit="10" x1="14.293" y1="41.429" x2="49.578" y2="41.429" />
                </g>
                <g>
                    <line fill="none" stroke="currentColor" stroke-width="2" stroke-miterlimit="10" x1="14.293" y1="46.332" x2="49.578" y2="46.332" />
                </g>
                <g>
                    <line fill="none" stroke="currentColor" stroke-width="2" stroke-miterlimit="10" x1="14.293" y1="51.235" x2="49.578" y2="51.235" />
                </g>
            </g>
        </g>
    </g>
    <g display="none">
        <g display="inline">
            <circle fill="currentColor" cx="32" cy="32" r="32" />
        </g>
        <g display="inline">
            <g>
                <g>
                    <g>
                        <g>
                            <rect x="11" y="4.84" width="42" height="54.32" />
                        </g>
                        <g>
                            <path fill="currentColor" d="M52,5.84v52.32H12V5.84H52 M54,3.84H10v56.32h44V3.84L54,3.84z" />
                        </g>
                    </g>
                </g>
                <g>
                    <g>
                        <rect x="16.418" y="39.297" fill="currentColor" width="31.051" height="2" />
                    </g>
                </g>
                <g>
                    <g>
                        <rect x="16.418" y="43.612" fill="currentColor" width="31.051" height="2" />
                    </g>
                </g>
                <g>
                    <g>
                        <rect x="16.418" y="47.927" fill="currentColor" width="31.051" height="2" />
                    </g>
                </g>
            </g>
            <g>
                <g>
                    <g>
                        <path fill="currentColor" d="M22.143,17.84h2.387v6.692c0,3.016-1.444,4.069-3.769,4.069c-0.55,0-1.273-0.095-1.743-0.252       l0.267-1.931c0.329,0.11,0.753,0.188,1.224,0.188c1.005,0,1.635-0.455,1.635-2.105V17.84z" />
                    </g>
                </g>
                <g>
                    <g>
                        <path fill="currentColor" d="M26.371,17.982c0.738-0.127,1.774-0.22,3.235-0.22c1.477,0,2.53,0.283,3.236,0.848       c0.677,0.535,1.132,1.413,1.132,2.451c0,1.036-0.347,1.916-0.975,2.513c-0.816,0.77-2.026,1.115-3.439,1.115       c-0.315,0-0.597-0.015-0.817-0.047v3.786h-2.371V17.982z M28.743,22.789c0.205,0.047,0.455,0.063,0.801,0.063       c1.273,0,2.058-0.645,2.058-1.728c0-0.973-0.675-1.555-1.869-1.555c-0.487,0-0.817,0.047-0.99,0.095V22.789z" />
                    </g>
                </g>
                <g>
                    <g>
                        <path fill="currentColor" d="M44.19,27.941c-0.738,0.252-2.136,0.597-3.534,0.597c-1.933,0-3.331-0.487-4.304-1.43       c-0.975-0.911-1.508-2.293-1.493-3.849c0.015-3.519,2.576-5.529,6.047-5.529c1.367,0,2.419,0.267,2.938,0.519l-0.503,1.916       c-0.582-0.252-1.305-0.455-2.466-0.455c-1.995,0-3.503,1.131-3.503,3.424c0,2.183,1.366,3.471,3.329,3.471       c0.55,0,0.99-0.063,1.179-0.157v-2.214h-1.635v-1.87h3.943V27.941z" />
                    </g>
                </g>
            </g>
        </g>
    </g>
    <g>
        <g>
            <path d="M57,0H7v64h50V0z M42.121,14.784c1.554,0,2.749,0.304,3.339,0.59l-0.571,2.177c-0.661-0.286-1.483-0.517-2.802-0.517    c-2.267,0-3.981,1.285-3.981,3.891c0,2.481,1.552,3.945,3.783,3.945c0.625,0,1.125-0.071,1.34-0.179v-2.516h-1.858V20.05h4.481    v6.337c-0.839,0.286-2.427,0.679-4.016,0.679c-2.196,0-3.785-0.554-4.891-1.625c-1.108-1.035-1.714-2.606-1.696-4.374    C35.267,17.069,38.176,14.784,42.121,14.784z M25.604,15.071c0.839-0.144,2.016-0.25,3.676-0.25c1.679,0,2.875,0.321,3.677,0.964    c0.769,0.608,1.286,1.606,1.286,2.785c0,1.177-0.394,2.177-1.108,2.856c-0.927,0.875-2.302,1.267-3.908,1.267    c-0.358,0-0.679-0.017-0.929-0.054v4.302h-2.695V15.071z M17.55,24.656c0.374,0.125,0.856,0.214,1.391,0.214    c1.142,0,1.858-0.517,1.858-2.392v-7.568h2.712v7.605c0,3.427-1.641,4.624-4.283,4.624c-0.625,0-1.446-0.108-1.981-0.286    L17.55,24.656z M49.578,52.235H14.294v-2h35.284V52.235z M49.578,47.332H14.294v-2h35.284V47.332z M49.578,42.428H14.294v-2    h35.284V42.428z" />
            <path d="M31.547,18.64c0-1.106-0.767-1.767-2.124-1.767c-0.554,0-0.929,0.054-1.125,0.108v3.552    c0.233,0.054,0.517,0.071,0.91,0.071C30.655,20.604,31.547,19.871,31.547,18.64z" />
        </g>
    </g>

</svg>