<svg xmlns="http://www.w3.org/2000/svg" xmlns:xlink="http://www.w3.org/1999/xlink" version="1.1" x="0px" y="0px" viewBox="0 0 64 80" fill="currentColor" xml:space="preserve">
    <g display="none">
        <rect x="374.502" y="-437.502" transform="matrix(1.067751e-10 -1 1 1.067751e-10 310.5031 458.5)" display="inline" fill="currentColor" width="20" height="1023" />
        <rect x="-54.018" y="-37.67" display="inline" fill="currentColor" width="947.424" height="496.184" />
    </g>
    <g display="none">
        <g display="inline">
            <g>
                <rect x="0" y="8" transform="matrix(4.462190e-11 1 -1 4.462190e-11 64 -1.415167e-09)" fill="currentColor" width="64" height="48" />
            </g>
            <g>
                <rect x="29.805" y="-21.805" transform="matrix(6.505808e-10 1 -1 6.505808e-10 34.1948 -29.8052)" width="4.39" height="48" />
            </g>
            <g>
                <rect x="29.805" y="37.746" transform="matrix(6.505808e-10 1 -1 6.505808e-10 93.7459 29.7459)" fill="currentColor" width="4.39" height="48" />
            </g>
            <g>
                <rect x="15.293" y="43.428" width="33.285" height="1.333" />
            </g>
            <g>
                <rect x="15.293" y="47.428" fill="currentColor" width="33.285" height="1.333" />
            </g>
            <g>
                <rect x="15.293" y="50.095" fill="currentColor" width="33.285" height="1.333" />
            </g>
            <g>
                <rect x="15.293" y="52.762" fill="currentColor" width="33.285" height="1.333" />
            </g>
            <g>
                <path fill="currentColor" d="M17.272,18.07c0.839-0.143,2.016-0.25,3.677-0.25c1.677,0,2.874,0.321,3.676,0.964     c0.769,0.608,1.286,1.607,1.286,2.785c0,1.178-0.392,2.178-1.108,2.856c-0.927,0.875-2.302,1.267-3.908,1.267     c-0.358,0-0.679-0.017-0.929-0.054v4.302h-2.695V18.07z M19.967,23.532c0.233,0.054,0.517,0.071,0.91,0.071     c1.446,0,2.339-0.732,2.339-1.964c0-1.106-0.767-1.767-2.124-1.767c-0.554,0-0.929,0.053-1.125,0.107V23.532z" />
                <path fill="currentColor" d="M27.47,18.07c0.999-0.161,2.302-0.25,3.677-0.25c2.285,0,3.766,0.411,4.926,1.286     c1.25,0.928,2.035,2.409,2.035,4.533c0,2.303-0.839,3.892-1.999,4.874c-1.267,1.053-3.196,1.553-5.552,1.553     c-1.41,0-2.41-0.089-3.087-0.179V18.07z M30.201,27.887c0.231,0.054,0.606,0.054,0.946,0.054c2.462,0.018,4.07-1.339,4.07-4.213     c0.017-2.499-1.446-3.82-3.785-3.82c-0.608,0-1,0.054-1.231,0.107V27.887z" />
                <path fill="currentColor" d="M39.723,17.909h7.353v2.231h-4.622v2.749h4.32v2.214h-4.32v4.837h-2.731V17.909z" />
            </g>
        </g>
    </g>
    <g display="none">
        <circle display="inline" fill="currentColor" cx="32" cy="32" r="32" />
        <g display="inline">
            <defs>
                <circle id="b" cx="32" cy="32" r="32" />
            </defs>
            <clipPath id="a">
                <use xlink:href="#b" overflow="visible" />
            </clipPath>
            <polygon clip-path="url(#a)" fill="currentColor" points="48.168,10.491 72.673,34.996 48.927,70.175 36.555,74.088     15.918,53.451   " />
        </g>
        <rect x="10.543" y="15.866" transform="matrix(4.462901e-11 1 -1 4.462901e-11 64.0343 -0.0521)" display="inline" fill="currentColor" width="43" height="32.25" />
        <rect x="30.569" y="-4.159" transform="matrix(6.506767e-10 1 -1 6.506767e-10 44.009 -20.0774)" display="inline" width="2.949" height="32.25" />
        <rect x="30.569" y="35.852" transform="matrix(6.506767e-10 1 -1 6.506767e-10 84.0198 19.9334)" display="inline" fill="currentColor" width="2.949" height="32.25" />
        <rect x="20.818" y="39.67" display="inline" width="22.363" height="0.896" />
        <rect x="20.818" y="42.357" display="inline" fill="currentColor" width="22.363" height="0.896" />
        <rect x="20.818" y="44.149" display="inline" fill="currentColor" width="22.363" height="0.896" />
        <rect x="20.818" y="45.94" display="inline" fill="currentColor" width="22.363" height="0.896" />
        <text transform="matrix(1 0 0 1 21.3561 30.6075)" display="inline" fill="currentColor" font-family="'MyriadPro-Bold'" font-size="12px">PDF</text>
    </g>
    <g display="none">
        <g display="inline">
            <g>
                <path d="M17.272,16.07c0.839-0.143,2.016-0.25,3.677-0.25c1.677,0,2.874,0.321,3.676,0.964c0.769,0.608,1.286,1.607,1.286,2.785     c0,1.178-0.392,2.178-1.108,2.856c-0.927,0.875-2.302,1.267-3.908,1.267c-0.358,0-0.679-0.017-0.929-0.054v4.302h-2.695V16.07z      M19.967,21.532c0.233,0.054,0.517,0.071,0.91,0.071c1.446,0,2.339-0.732,2.339-1.964c0-1.106-0.767-1.767-2.124-1.767     c-0.554,0-0.929,0.053-1.125,0.107V21.532z" />
            </g>
            <g>
                <path d="M27.47,16.07c0.999-0.161,2.302-0.25,3.677-0.25c2.285,0,3.766,0.411,4.926,1.286c1.25,0.928,2.035,2.409,2.035,4.533     c0,2.303-0.839,3.892-1.999,4.874c-1.267,1.053-3.196,1.553-5.552,1.553c-1.41,0-2.41-0.089-3.087-0.179V16.07z M30.201,25.887     c0.231,0.054,0.606,0.054,0.946,0.054c2.462,0.018,4.07-1.339,4.07-4.213c0.017-2.499-1.446-3.82-3.785-3.82     c-0.608,0-1,0.054-1.231,0.107V25.887z" />
            </g>
            <g>
                <path d="M39.723,15.909h7.353v2.231h-4.622v2.749h4.32v2.214h-4.32v4.837h-2.731V15.909z" />
            </g>
        </g>
        <g display="inline">
            <g>
                <g>
                    <g>
                        <path d="M55,2v60H9V2H55 M57,0H7v64h50V0L57,0z" />
                    </g>
                </g>
                <g>
                    <line fill="none" stroke="currentColor" stroke-width="2" stroke-miterlimit="10" x1="14.293" y1="41.428" x2="49.578" y2="41.428" />
                </g>
                <g>
                    <line fill="none" stroke="currentColor" stroke-width="2" stroke-miterlimit="10" x1="14.293" y1="46.332" x2="49.578" y2="46.332" />
                </g>
                <g>
                    <line fill="none" stroke="currentColor" stroke-width="2" stroke-miterlimit="10" x1="14.293" y1="51.235" x2="49.578" y2="51.235" />
                </g>
            </g>
        </g>
    </g>
    <g display="none">
        <g display="inline">
            <circle fill="currentColor" cx="32" cy="32" r="32" />
        </g>
        <g display="inline">
            <g>
                <g>
                    <g>
                        <g>
                            <rect x="11" y="4.84" width="42" height="54.319" />
                        </g>
                        <g>
                            <path fill="currentColor" d="M52,5.84v52.32H12V5.84H52 M54,3.84H10v56.32h44V3.84L54,3.84z" />
                        </g>
                    </g>
                </g>
                <g>
                    <g>
                        <rect x="16.418" y="39.297" fill="currentColor" width="31.051" height="2" />
                    </g>
                </g>
                <g>
                    <g>
                        <rect x="16.418" y="43.612" fill="currentColor" width="31.051" height="2" />
                    </g>
                </g>
                <g>
                    <g>
                        <rect x="16.418" y="47.927" fill="currentColor" width="31.051" height="2" />
                    </g>
                </g>
            </g>
            <g>
                <g>
                    <g>
                        <path fill="currentColor" d="M19.04,17.981c0.738-0.126,1.774-0.22,3.236-0.22c1.476,0,2.529,0.283,3.235,0.848       c0.677,0.535,1.132,1.414,1.132,2.451s-0.345,1.917-0.975,2.513c-0.816,0.77-2.026,1.115-3.439,1.115       c-0.315,0-0.597-0.015-0.817-0.047v3.786H19.04V17.981z M21.411,22.788c0.205,0.047,0.455,0.063,0.801,0.063       c1.273,0,2.058-0.644,2.058-1.728c0-0.973-0.675-1.555-1.869-1.555c-0.487,0-0.817,0.047-0.99,0.094V22.788z" />
                    </g>
                </g>
                <g>
                    <g>
                        <path fill="currentColor" d="M28.014,17.981c0.879-0.141,2.026-0.22,3.236-0.22c2.011,0,3.314,0.361,4.335,1.131       c1.1,0.817,1.791,2.12,1.791,3.989c0,2.027-0.738,3.425-1.759,4.289c-1.115,0.927-2.813,1.367-4.886,1.367       c-1.241,0-2.121-0.079-2.717-0.157V17.981z M30.417,26.621c0.203,0.047,0.533,0.047,0.833,0.047       c2.167,0.016,3.581-1.178,3.581-3.707c0.015-2.199-1.273-3.361-3.331-3.361c-0.535,0-0.88,0.047-1.083,0.094V26.621z" />
                    </g>
                </g>
                <g>
                    <g>
                        <path fill="currentColor" d="M38.796,17.84h6.471v1.963H41.2v2.419h3.801v1.948H41.2v4.257h-2.403V17.84z" />
                    </g>
                </g>
            </g>
        </g>
    </g>
    <g>
        <g>
            <path d="M57,0H7v64h50V0z M39.723,14.909h7.353v2.231h-4.622v2.749h4.32v2.214h-4.32v4.837h-2.731V14.909z M27.47,15.07    c0.999-0.161,2.302-0.25,3.677-0.25c2.285,0,3.766,0.411,4.926,1.286c1.25,0.928,2.035,2.409,2.035,4.533    c0,2.303-0.839,3.892-1.999,4.874c-1.267,1.053-3.196,1.553-5.552,1.553c-1.41,0-2.41-0.089-3.087-0.179V15.07z M17.272,15.07    c0.839-0.143,2.016-0.25,3.677-0.25c1.677,0,2.874,0.321,3.676,0.964c0.769,0.608,1.286,1.607,1.286,2.785    c0,1.178-0.392,2.178-1.108,2.856c-0.927,0.875-2.302,1.267-3.908,1.267c-0.358,0-0.679-0.017-0.929-0.054v4.302h-2.695V15.07z     M49.579,52.235H14.293v-2h35.286V52.235z M49.579,47.331H14.293v-2h35.286V47.331z M49.579,42.428H14.293v-2h35.286V42.428z" />
            <path d="M35.217,20.728c0.017-2.499-1.446-3.82-3.785-3.82c-0.608,0-1,0.054-1.231,0.107v7.872    c0.231,0.054,0.606,0.054,0.946,0.054C33.61,24.959,35.217,23.602,35.217,20.728z" />
            <path d="M23.216,18.639c0-1.106-0.767-1.767-2.124-1.767c-0.554,0-0.929,0.053-1.125,0.107v3.552    c0.233,0.054,0.517,0.071,0.91,0.071C22.323,20.603,23.216,19.871,23.216,18.639z" />
        </g>
    </g>

</svg>