<svg xmlns="http://www.w3.org/2000/svg" xmlns:xlink="http://www.w3.org/1999/xlink" version="1.1" x="0px" y="0px" viewBox="0 0 64 80" fill="currentColor" xml:space="preserve">
    <g display="none">
        <rect x="63.999" y="-188.012" display="inline" fill="currentColor" width="20" height="430" />
        <rect x="-129.501" y="-437.512" transform="matrix(1.067751e-10 -1 1 1.067751e-10 -193.4889 -45.5124)" display="inline" fill="currentColor" width="20" height="1023" />
        <rect x="-558.02" y="-205.68" display="inline" fill="currentColor" width="947.424" height="496.184" />
    </g>
    <g display="none">
        <g display="inline">
            <g>
                <rect x="0" y="8" transform="matrix(4.462190e-11 1 -1 4.462190e-11 64 -1.415167e-09)" fill="currentColor" width="64" height="48" />
            </g>
            <g>
                <rect x="29.805" y="-21.805" transform="matrix(6.505808e-10 1 -1 6.505808e-10 34.1948 -29.8052)" width="4.39" height="48" />
            </g>
            <g>
                <rect x="29.805" y="37.746" transform="matrix(6.505808e-10 1 -1 6.505808e-10 93.7459 29.7459)" fill="currentColor" width="4.39" height="48" />
            </g>
            <g>
                <rect x="15.293" y="43.428" width="33.285" height="1.333" />
            </g>
            <g>
                <rect x="15.293" y="47.428" fill="currentColor" width="33.285" height="1.333" />
            </g>
            <g>
                <rect x="15.293" y="50.095" fill="currentColor" width="33.285" height="1.333" />
            </g>
            <g>
                <rect x="15.293" y="52.762" fill="currentColor" width="33.285" height="1.333" />
            </g>
            <g>
                <path fill="currentColor" d="M16.949,27.138c0.731,0.375,1.856,0.75,3.016,0.75c1.25,0,1.911-0.517,1.911-1.304     c0-0.749-0.571-1.177-2.017-1.695c-2-0.696-3.302-1.804-3.302-3.552c0-2.054,1.714-3.624,4.551-3.624     c1.358,0,2.358,0.285,3.071,0.606l-0.608,2.196c-0.481-0.233-1.339-0.571-2.516-0.571c-1.179,0-1.75,0.535-1.75,1.16     c0,0.767,0.679,1.106,2.231,1.696c2.125,0.785,3.124,1.892,3.124,3.587c0,2.017-1.552,3.731-4.855,3.731     c-1.375,0-2.731-0.358-3.41-0.731L16.949,27.138z" />
                <path fill="currentColor" d="M29.164,29.94L25.31,17.91h2.981l1.464,5.087c0.41,1.427,0.785,2.802,1.07,4.302h0.054     c0.304-1.446,0.679-2.875,1.089-4.249l1.536-5.141h2.891L32.342,29.94H29.164z" />
                <path fill="currentColor" d="M47.413,29.388c-0.839,0.285-2.427,0.677-4.016,0.677c-2.196,0-3.785-0.554-4.891-1.624     c-1.108-1.036-1.714-2.606-1.696-4.374c0.017-3.999,2.927-6.283,6.872-6.283c1.554,0,2.749,0.302,3.339,0.589l-0.571,2.177     c-0.661-0.285-1.483-0.517-2.802-0.517c-2.267,0-3.981,1.285-3.981,3.891c0,2.483,1.552,3.946,3.783,3.946     c0.625,0,1.125-0.073,1.34-0.179v-2.517h-1.858v-2.124h4.481V29.388z" />
            </g>
        </g>
    </g>
    <g display="none">
        <circle display="inline" fill="currentColor" cx="32" cy="32" r="32" />
        <g display="inline">
            <defs>
                <circle id="b" cx="32" cy="32" r="32" />
            </defs>
            <clipPath id="a">
                <use xlink:href="#b" overflow="visible" />
            </clipPath>
            <polygon clip-path="url(#a)" fill="currentColor" points="48.168,10.491 72.673,34.996 48.927,70.175 36.555,74.088     15.918,53.451   " />
        </g>
        <rect x="10.543" y="15.866" transform="matrix(4.462901e-11 1 -1 4.462901e-11 64.0343 -0.0521)" display="inline" fill="currentColor" width="43" height="32.25" />
        <rect x="30.569" y="-4.159" transform="matrix(6.506767e-10 1 -1 6.506767e-10 44.009 -20.0774)" display="inline" width="2.949" height="32.25" />
        <rect x="30.569" y="35.852" transform="matrix(6.506767e-10 1 -1 6.506767e-10 84.0198 19.9334)" display="inline" fill="currentColor" width="2.949" height="32.25" />
        <rect x="20.818" y="39.67" display="inline" width="22.363" height="0.896" />
        <rect x="20.818" y="42.357" display="inline" fill="currentColor" width="22.363" height="0.896" />
        <rect x="20.818" y="44.149" display="inline" fill="currentColor" width="22.363" height="0.896" />
        <rect x="20.818" y="45.94" display="inline" fill="currentColor" width="22.363" height="0.896" />
        <text transform="matrix(1 0 0 1 21.0797 30.6075)" display="inline">
            <tspan x="0" y="0" fill="currentColor" font-family="'MyriadPro-Bold'" font-size="12px">S</tspan>
            <tspan x="6.359" y="0" fill="currentColor" font-family="'MyriadPro-Bold'" font-size="12px">V</tspan>
            <tspan x="13.775" y="0" fill="currentColor" font-family="'MyriadPro-Bold'" font-size="12px">G</tspan>
        </text>
    </g>
    <g display="none">
        <g display="inline">
            <g>
                <path d="M21.108,15.714c-2.837,0-4.551,1.57-4.551,3.624c0,1.749,1.302,2.856,3.302,3.552c1.446,0.517,2.017,0.946,2.017,1.695     c0,0.786-0.661,1.304-1.911,1.304c-1.16,0-2.285-0.375-3.016-0.75l-0.554,2.25c0.679,0.374,2.035,0.731,3.41,0.731     c3.302,0,4.855-1.714,4.855-3.731c0-1.695-0.999-2.802-3.124-3.587c-1.552-0.59-2.231-0.929-2.231-1.696     c0-0.625,0.571-1.16,1.75-1.16c1.177,0,2.035,0.339,2.516,0.571l0.608-2.196C23.465,15.999,22.465,15.714,21.108,15.714     L21.108,15.714z" />
            </g>
            <g>
                <path d="M36.394,15.91h-2.891l-1.536,5.141c-0.41,1.374-0.785,2.802-1.089,4.249h-0.054c-0.285-1.5-0.66-2.875-1.07-4.302     l-1.464-5.087H25.31l3.855,12.031h3.177L36.394,15.91L36.394,15.91z" />
            </g>
            <g>
                <path d="M43.682,15.785c-3.945,0-6.855,2.285-6.872,6.283c-0.017,1.767,0.589,3.337,1.696,4.374     c1.106,1.07,2.695,1.624,4.891,1.624c1.589,0,3.177-0.392,4.016-0.677v-6.337h-4.481v2.124h1.858v2.517     c-0.215,0.106-0.715,0.179-1.34,0.179c-2.231,0-3.783-1.464-3.783-3.946c0-2.606,1.714-3.891,3.981-3.891     c1.32,0,2.141,0.233,2.802,0.517l0.571-2.177C46.43,16.087,45.236,15.785,43.682,15.785L43.682,15.785z" />
            </g>
        </g>
        <g display="inline">
            <g>
                <g>
                    <g>
                        <path d="M55,2v60H9V2H55 M57,0H7v64h50V0L57,0z" />
                    </g>
                </g>
                <g>
                    <line fill="none" stroke="currentColor" stroke-width="2" stroke-miterlimit="10" x1="14.293" y1="41.428" x2="49.578" y2="41.428" />
                </g>
                <g>
                    <line fill="none" stroke="currentColor" stroke-width="2" stroke-miterlimit="10" x1="14.293" y1="46.332" x2="49.578" y2="46.332" />
                </g>
                <g>
                    <line fill="none" stroke="currentColor" stroke-width="2" stroke-miterlimit="10" x1="14.293" y1="51.235" x2="49.578" y2="51.235" />
                </g>
            </g>
        </g>
    </g>
    <g display="none">
        <g display="inline">
            <circle fill="currentColor" cx="32.012" cy="32.995" r="32" />
        </g>
        <g display="inline">
            <g>
                <g>
                    <g>
                        <g>
                            <rect x="11" y="4.84" width="42" height="54.32" />
                        </g>
                        <g>
                            <path fill="currentColor" d="M52,5.84v52.32H12V5.84H52 M54,3.84H10v56.32h44V3.84L54,3.84z" />
                        </g>
                    </g>
                </g>
                <g>
                    <g>
                        <rect x="16.418" y="39.297" fill="currentColor" width="31.051" height="2" />
                    </g>
                </g>
                <g>
                    <g>
                        <rect x="16.418" y="43.612" fill="currentColor" width="31.051" height="2" />
                    </g>
                </g>
                <g>
                    <g>
                        <rect x="16.418" y="47.927" fill="currentColor" width="31.051" height="2" />
                    </g>
                </g>
            </g>
            <g>
                <g>
                    <g>
                        <path fill="currentColor" d="M18.745,25.966c0.643,0.33,1.633,0.66,2.654,0.66c1.1,0,1.682-0.455,1.682-1.147       c0-0.659-0.503-1.036-1.775-1.491c-1.76-0.613-2.906-1.587-2.906-3.126c0-1.807,1.508-3.189,4.005-3.189       c1.195,0,2.075,0.251,2.703,0.533l-0.535,1.933c-0.423-0.205-1.178-0.503-2.214-0.503c-1.037,0-1.54,0.471-1.54,1.021       c0,0.675,0.597,0.973,1.963,1.493c1.87,0.691,2.749,1.665,2.749,3.157c0,1.775-1.366,3.283-4.272,3.283       c-1.21,0-2.403-0.315-3.001-0.643L18.745,25.966z" />
                    </g>
                </g>
                <g>
                    <g>
                        <path fill="currentColor" d="M29.494,28.432l-3.392-10.587h2.623l1.288,4.477c0.361,1.256,0.691,2.466,0.941,3.786h0.047       c0.267-1.273,0.597-2.53,0.958-3.739l1.352-4.524h2.544L32.29,28.432H29.494z" />
                    </g>
                </g>
                <g>
                    <g>
                        <path fill="currentColor" d="M45.553,27.946c-0.738,0.251-2.136,0.596-3.534,0.596c-1.933,0-3.331-0.487-4.304-1.429       c-0.975-0.912-1.508-2.293-1.493-3.849c0.015-3.519,2.576-5.529,6.047-5.529c1.367,0,2.419,0.266,2.938,0.518l-0.503,1.916       c-0.582-0.251-1.305-0.455-2.466-0.455c-1.995,0-3.503,1.131-3.503,3.424c0,2.185,1.366,3.473,3.329,3.473       c0.55,0,0.99-0.064,1.179-0.157v-2.215H41.61v-1.869h3.943V27.946z" />
                    </g>
                </g>
            </g>
        </g>
    </g>
    <g>
        <g>
            <path d="M7,64h50V0H7V64z M43.682,14.785c1.554,0,2.749,0.302,3.339,0.589l-0.571,2.177c-0.661-0.285-1.483-0.517-2.802-0.517    c-2.267,0-3.981,1.285-3.981,3.891c0,2.483,1.552,3.946,3.783,3.946c0.625,0,1.125-0.073,1.34-0.179v-2.517h-1.858v-2.124h4.481    v6.337c-0.839,0.285-2.427,0.677-4.016,0.677c-2.196,0-3.785-0.554-4.891-1.624c-1.108-1.036-1.714-2.606-1.696-4.374    C36.827,17.07,39.737,14.785,43.682,14.785z M28.291,14.91l1.464,5.087c0.41,1.427,0.785,2.802,1.07,4.302h0.054    c0.304-1.446,0.679-2.875,1.089-4.249l1.536-5.141h2.891L32.342,26.94h-3.177L25.31,14.91H28.291z M19.859,21.89    c-2-0.696-3.302-1.804-3.302-3.552c0-2.054,1.714-3.624,4.551-3.624c1.358,0,2.358,0.285,3.071,0.606l-0.608,2.196    c-0.481-0.233-1.339-0.571-2.516-0.571c-1.179,0-1.75,0.535-1.75,1.16c0,0.767,0.679,1.106,2.231,1.696    c2.125,0.785,3.124,1.892,3.124,3.587c0,2.017-1.552,3.731-4.855,3.731c-1.375,0-2.731-0.358-3.41-0.731l0.554-2.25    c0.731,0.375,1.856,0.75,3.016,0.75c1.25,0,1.911-0.517,1.911-1.304C21.877,22.836,21.305,22.407,19.859,21.89z M14.293,40.429    h35.285v2H14.293V40.429z M14.293,45.332h35.285v2H14.293V45.332z M14.293,50.235h35.285v2H14.293V50.235z" />
        </g>
    </g>
</svg>