<svg xmlns="http://www.w3.org/2000/svg" xmlns:xlink="http://www.w3.org/1999/xlink" version="1.1" x="0px" y="0px" viewBox="0 0 64 80" fill="currentColor" xml:space="preserve">
    <g display="none">
        <rect x="63.994" y="-272.003" display="inline" fill="currentColor" width="20" height="430" />
        <rect x="-381.506" y="-437.503" transform="matrix(1.067751e-10 -1 1 1.067751e-10 -445.5029 -297.5088)" display="inline" fill="currentColor" width="20" height="1023" />
        <rect x="-810.025" y="-289.671" display="inline" fill="currentColor" width="947.424" height="496.184" />
    </g>
    <g display="none">
        <g display="inline">
            <g>
                <rect x="0" y="8" transform="matrix(4.462190e-11 1 -1 4.462190e-11 64 -1.415167e-09)" fill="currentColor" width="64" height="48" />
            </g>
            <g>
                <rect x="29.805" y="-21.805" transform="matrix(6.505808e-10 1 -1 6.505808e-10 34.1948 -29.8052)" width="4.39" height="48" />
            </g>
            <g>
                <rect x="29.805" y="37.746" transform="matrix(6.505808e-10 1 -1 6.505808e-10 93.7459 29.7459)" fill="currentColor" width="4.39" height="48" />
            </g>
            <g>
                <rect x="15.293" y="43.428" width="33.285" height="1.333" />
            </g>
            <g>
                <rect x="15.293" y="47.428" fill="currentColor" width="33.285" height="1.333" />
            </g>
            <g>
                <rect x="15.293" y="50.095" fill="currentColor" width="33.285" height="1.333" />
            </g>
            <g>
                <rect x="15.293" y="52.762" fill="currentColor" width="33.285" height="1.333" />
            </g>
            <g>
                <path fill="currentColor" d="M20.519,29.409L19.52,27.41c-0.41-0.769-0.672-1.342-0.983-1.981h-0.033     c-0.23,0.64-0.507,1.212-0.852,1.981l-0.917,1.999h-2.849l3.193-5.584l-3.078-5.452h2.866l0.965,2.013     c0.328,0.672,0.574,1.212,0.836,1.834H18.7c0.263-0.703,0.475-1.195,0.754-1.834l0.933-2.013h2.849l-3.112,5.387l3.276,5.65     H20.519z" />
                <path fill="currentColor" d="M24.578,18.372h2.504v8.94h4.388v2.096h-6.892V18.372z" />
                <path fill="currentColor" d="M32.862,26.837c0.672,0.344,1.702,0.688,2.767,0.688c1.145,0,1.751-0.474,1.751-1.195     c0-0.688-0.523-1.081-1.85-1.555c-1.834-0.64-3.029-1.654-3.029-3.259c0-1.884,1.573-3.324,4.176-3.324     c1.244,0,2.161,0.262,2.815,0.557l-0.557,2.015c-0.442-0.214-1.228-0.525-2.308-0.525c-1.081,0-1.605,0.491-1.605,1.064     c0,0.705,0.622,1.016,2.047,1.557c1.949,0.719,2.866,1.735,2.866,3.291c0,1.85-1.426,3.422-4.455,3.422     c-1.26,0-2.504-0.327-3.126-0.67L32.862,26.837z" />
                <path fill="currentColor" d="M47.27,29.409l-0.999-1.999c-0.41-0.769-0.672-1.342-0.983-1.981h-0.033     c-0.23,0.64-0.507,1.212-0.852,1.981l-0.917,1.999h-2.849l3.193-5.584l-3.078-5.452h2.866l0.965,2.013     c0.328,0.672,0.574,1.212,0.836,1.834h0.032c0.263-0.703,0.475-1.195,0.754-1.834l0.933-2.013h2.849l-3.112,5.387l3.276,5.65     H47.27z" />
            </g>
        </g>
    </g>
    <g display="none">
        <circle display="inline" fill="currentColor" cx="32" cy="32" r="32" />
        <g display="inline">
            <defs>
                <circle id="b" cx="32" cy="32" r="32" />
            </defs>
            <clipPath id="a">
                <use xlink:href="#b" overflow="visible" />
            </clipPath>
            <polygon clip-path="url(#a)" fill="currentColor" points="48.168,10.491 72.673,34.996 48.927,70.175 36.555,74.088     15.918,53.451   " />
        </g>
        <rect x="10.543" y="15.866" transform="matrix(4.462901e-11 1 -1 4.462901e-11 64.0343 -0.0521)" display="inline" fill="currentColor" width="43" height="32.25" />
        <rect x="30.569" y="-4.159" transform="matrix(6.506767e-10 1 -1 6.506767e-10 44.009 -20.0774)" display="inline" width="2.949" height="32.25" />
        <rect x="30.569" y="35.852" transform="matrix(6.506767e-10 1 -1 6.506767e-10 84.0198 19.9334)" display="inline" fill="currentColor" width="2.949" height="32.25" />
        <rect x="20.818" y="39.67" display="inline" width="22.363" height="0.896" />
        <rect x="20.818" y="42.357" display="inline" fill="currentColor" width="22.363" height="0.896" />
        <rect x="20.818" y="44.149" display="inline" fill="currentColor" width="22.363" height="0.896" />
        <rect x="20.818" y="45.94" display="inline" fill="currentColor" width="22.363" height="0.896" />
        <text transform="matrix(1 0 0 1 19.6972 30.2499)" display="inline" fill="currentColor" font-family="'MyriadPro-Bold'" font-size="11px">XLSX</text>
    </g>
    <g display="none">
        <g display="inline">
            <g>
                <path d="M23.237,16.372h-2.849l-0.933,2.013c-0.279,0.64-0.491,1.131-0.754,1.834h-0.032c-0.262-0.622-0.507-1.163-0.836-1.834     l-0.965-2.013h-2.866l3.078,5.452l-3.193,5.584h2.849l0.917-1.999c0.344-0.769,0.622-1.342,0.852-1.981h0.033     c0.311,0.64,0.573,1.212,0.983,1.981l0.999,1.999h2.882l-3.276-5.65L23.237,16.372L23.237,16.372z" />
            </g>
            <g>
                <polygon points="27.082,16.372 24.578,16.372 24.578,27.409 31.471,27.409 31.471,25.313 27.082,25.313 27.082,16.372    " />
            </g>
            <g>
                <path d="M36.677,16.192c-2.603,0-4.176,1.44-4.176,3.324c0,1.605,1.195,2.619,3.029,3.259c1.327,0.474,1.85,0.868,1.85,1.555     c0,0.721-0.606,1.195-1.751,1.195c-1.065,0-2.096-0.343-2.767-0.688l-0.507,2.064c0.622,0.343,1.866,0.67,3.126,0.67     c3.029,0,4.455-1.571,4.455-3.422c0-1.555-0.917-2.571-2.866-3.291c-1.424-0.541-2.047-0.852-2.047-1.557     c0-0.573,0.523-1.064,1.605-1.064c1.08,0,1.866,0.311,2.308,0.525l0.557-2.015C38.838,16.454,37.921,16.192,36.677,16.192     L36.677,16.192z" />
            </g>
            <g>
                <path d="M49.988,16.372h-2.849l-0.933,2.013c-0.279,0.64-0.491,1.131-0.754,1.834H45.42c-0.262-0.622-0.507-1.163-0.836-1.834     l-0.965-2.013h-2.866l3.078,5.452l-3.193,5.584h2.849l0.917-1.999c0.344-0.769,0.622-1.342,0.852-1.981h0.033     c0.311,0.64,0.573,1.212,0.983,1.981l0.999,1.999h2.882l-3.276-5.65L49.988,16.372L49.988,16.372z" />
            </g>
        </g>
        <g display="inline">
            <g>
                <g>
                    <g>
                        <path d="M55,2v60H9V2H55 M57,0H7v64h50V0L57,0z" />
                    </g>
                </g>
                <g>
                    <line fill="none" stroke="currentColor" stroke-width="2" stroke-miterlimit="10" x1="14.293" y1="41.428" x2="49.578" y2="41.428" />
                </g>
                <g>
                    <line fill="none" stroke="currentColor" stroke-width="2" stroke-miterlimit="10" x1="14.293" y1="46.332" x2="49.578" y2="46.332" />
                </g>
                <g>
                    <line fill="none" stroke="currentColor" stroke-width="2" stroke-miterlimit="10" x1="14.293" y1="51.235" x2="49.578" y2="51.235" />
                </g>
            </g>
        </g>
    </g>
    <g display="none">
        <g display="inline">
            <circle fill="currentColor" cx="32" cy="32" r="32" />
        </g>
        <g display="inline">
            <g>
                <g>
                    <g>
                        <g>
                            <rect x="11" y="4.84" width="42" height="54.32" />
                        </g>
                        <g>
                            <path fill="currentColor" d="M52,5.84v52.32H12V5.84H52 M54,3.84H10v56.32h44V3.84L54,3.84z" />
                        </g>
                    </g>
                </g>
                <g>
                    <g>
                        <rect x="16.418" y="39.297" fill="currentColor" width="31.051" height="2" />
                    </g>
                </g>
                <g>
                    <g>
                        <rect x="16.418" y="43.612" fill="currentColor" width="31.051" height="2" />
                    </g>
                </g>
                <g>
                    <g>
                        <rect x="16.418" y="47.927" fill="currentColor" width="31.051" height="2" />
                    </g>
                </g>
            </g>
            <g>
                <g>
                    <g>
                        <path fill="currentColor" d="M21.896,27.96l-0.879-1.759c-0.361-0.677-0.591-1.181-0.865-1.743h-0.029       c-0.202,0.563-0.446,1.067-0.75,1.743l-0.807,1.759H16.06l2.81-4.914l-2.709-4.798h2.522l0.849,1.772       c0.289,0.591,0.505,1.067,0.735,1.614h0.028c0.232-0.619,0.418-1.051,0.664-1.614l0.821-1.772h2.507l-2.738,4.74l2.883,4.972       H21.896z" />
                    </g>
                </g>
                <g>
                    <g>
                        <path fill="currentColor" d="M25.469,18.248h2.204v7.868h3.862v1.844h-6.065V18.248z" />
                    </g>
                </g>
                <g>
                    <g>
                        <path fill="currentColor" d="M32.758,25.697c0.591,0.303,1.498,0.605,2.435,0.605c1.008,0,1.541-0.417,1.541-1.051       c0-0.605-0.46-0.952-1.628-1.369c-1.614-0.563-2.666-1.456-2.666-2.868c0-1.658,1.384-2.925,3.675-2.925       c1.095,0,1.902,0.23,2.478,0.49l-0.49,1.773c-0.389-0.188-1.081-0.462-2.031-0.462c-0.952,0-1.412,0.432-1.412,0.936       c0,0.62,0.547,0.894,1.801,1.37c1.715,0.633,2.522,1.527,2.522,2.896c0,1.628-1.255,3.011-3.92,3.011       c-1.109,0-2.204-0.288-2.751-0.59L32.758,25.697z" />
                    </g>
                </g>
                <g>
                    <g>
                        <path fill="currentColor" d="M45.438,27.96l-0.879-1.759c-0.361-0.677-0.591-1.181-0.865-1.743h-0.029       c-0.202,0.563-0.446,1.067-0.75,1.743l-0.807,1.759h-2.507l2.81-4.914l-2.709-4.798h2.522l0.849,1.772       c0.289,0.591,0.505,1.067,0.735,1.614h0.028c0.232-0.619,0.418-1.051,0.664-1.614l0.821-1.772h2.507l-2.738,4.74l2.883,4.972       H45.438z" />
                    </g>
                </g>
            </g>
        </g>
    </g>
    <g>
        <g>
            <path d="M7,64h50V0H7V64z M49.578,52.235H14.293v-2h35.285V52.235z M49.578,47.332H14.293v-2h35.285V47.332z M49.578,42.429    H14.293v-2h35.285V42.429z M40.753,15.372h2.866l0.965,2.013c0.328,0.672,0.574,1.212,0.836,1.834h0.032    c0.263-0.703,0.475-1.195,0.754-1.834l0.933-2.013h2.849l-3.112,5.387l3.276,5.65H47.27l-0.999-1.999    c-0.41-0.769-0.672-1.342-0.983-1.981h-0.033c-0.23,0.64-0.507,1.212-0.852,1.981l-0.917,1.999h-2.849l3.193-5.584L40.753,15.372z     M35.53,21.775c-1.834-0.64-3.029-1.654-3.029-3.259c0-1.884,1.573-3.324,4.176-3.324c1.244,0,2.161,0.262,2.815,0.557    l-0.557,2.015c-0.442-0.214-1.228-0.525-2.308-0.525c-1.081,0-1.605,0.491-1.605,1.064c0,0.705,0.622,1.016,2.047,1.557    c1.949,0.719,2.866,1.735,2.866,3.291c0,1.85-1.426,3.422-4.455,3.422c-1.26,0-2.504-0.327-3.126-0.67l0.507-2.064    c0.672,0.344,1.702,0.688,2.767,0.688c1.145,0,1.751-0.474,1.751-1.195C37.38,22.643,36.857,22.249,35.53,21.775z M24.578,15.372    h2.504v8.94h4.388v2.096h-6.892V15.372z M14.001,15.372h2.866l0.965,2.013c0.328,0.672,0.574,1.212,0.836,1.834H18.7    c0.263-0.703,0.475-1.195,0.754-1.834l0.933-2.013h2.849l-3.112,5.387l3.276,5.65h-2.882L19.52,24.41    c-0.41-0.769-0.672-1.342-0.983-1.981h-0.033c-0.23,0.64-0.507,1.212-0.852,1.981l-0.917,1.999h-2.849l3.193-5.584L14.001,15.372z    " />
        </g>
    </g>
</svg>