<?xml version="1.0" standalone="no"?>
<!DOCTYPE svg PUBLIC "-//W3C//DTD SVG 20010904//EN"
 "http://www.w3.org/TR/2001/REC-SVG-20010904/DTD/svg10.dtd">
<svg version="1.0" xmlns="http://www.w3.org/2000/svg"
 width="700.000000pt" height="700.000000pt" viewBox="0 0 700.000000 700.000000"
 preserveAspectRatio="xMidYMid meet">
<metadata>
Created by potrace 1.11, written by Peter Selinger 2001-2013
</metadata>
<g transform="translate(0.000000,700.000000) scale(0.100000,-0.100000)"
fill="#000000" stroke="none">
<path d="M3210 6613 c-157 -85 -327 -176 -377 -204 -51 -27 -112 -60 -135 -73
-24 -13 -77 -41 -118 -63 -71 -38 -141 -75 -275 -148 -33 -18 -100 -54 -150
-80 -49 -26 -94 -51 -100 -55 -5 -4 -59 -33 -120 -65 -60 -32 -162 -86 -225
-120 -131 -71 -221 -119 -317 -171 -38 -20 -97 -52 -133 -72 -36 -19 -94 -50
-130 -70 -36 -19 -87 -47 -115 -62 -27 -15 -90 -49 -140 -75 -49 -26 -94 -52
-100 -57 -5 -5 -9 -111 -10 -258 l0 -249 35 5 c19 3 43 7 52 10 9 3 66 5 127
5 76 1 111 5 112 13 1 6 2 56 4 111 3 144 3 140 31 168 15 15 72 50 128 78 55
29 128 66 161 84 33 18 112 60 175 93 63 32 149 77 190 99 41 22 122 65 180
95 58 31 148 78 200 105 52 28 158 83 235 123 77 40 172 89 210 110 39 21 124
66 190 100 66 34 161 84 210 110 50 26 149 78 220 115 72 37 154 81 184 98 63
35 115 38 163 10 18 -11 101 -55 183 -98 215 -112 426 -222 630 -330 44 -23
133 -70 198 -104 64 -33 170 -89 235 -122 64 -34 153 -81 197 -104 44 -23 130
-68 190 -100 61 -32 146 -77 190 -100 44 -23 134 -70 200 -105 265 -139 289
-153 301 -182 6 -13 10 -78 10 -144 l-1 -122 115 0 c63 -1 129 -5 145 -9 73
-21 69 -36 69 241 1 238 0 249 -19 261 -11 7 -56 32 -100 55 -44 23 -156 84
-250 135 -93 51 -210 114 -260 140 -49 26 -137 73 -195 105 -58 31 -145 79
-195 105 -77 41 -189 101 -520 280 -33 18 -96 52 -140 75 -44 23 -132 70 -195
105 -63 34 -151 81 -195 105 -44 23 -107 57 -140 75 -220 120 -437 236 -480
257 l-50 25 -285 -154z"/>
<path d="M3465 6097 c-11 -8 -96 -53 -190 -102 -93 -48 -192 -100 -220 -115
-27 -15 -117 -62 -200 -105 -82 -43 -172 -90 -200 -105 -27 -15 -113 -60 -190
-100 -77 -40 -158 -83 -180 -95 -22 -12 -94 -51 -160 -85 -66 -34 -126 -67
-132 -72 -7 -6 -13 -7 -13 -4 0 4 -12 -1 -27 -12 -16 -10 -66 -38 -113 -62
-47 -23 -116 -59 -155 -80 -38 -20 -133 -70 -210 -110 -77 -40 -145 -77 -152
-82 -8 -6 -11 -44 -11 -110 l1 -100 46 -20 c160 -68 283 -159 394 -296 l55
-67 229 2 c125 0 235 2 244 2 14 1 16 34 16 319 1 174 3 330 6 345 26 129 100
226 217 281 59 28 75 31 160 31 87 0 101 -3 160 -32 36 -17 65 -31 65 -30 1 1
13 18 27 38 57 78 189 139 299 139 66 0 165 -34 221 -75 86 -63 153 -183 157
-279 1 -13 5 -16 14 -9 27 21 109 35 180 31 128 -8 264 -99 312 -208 10 -25
20 -46 20 -48 1 -1 28 7 61 18 58 20 149 27 208 15 99 -20 214 -112 259 -207
31 -65 41 -126 40 -240 -1 -83 0 -88 20 -89 12 -1 121 -2 242 -3 l220 -1 30
34 c168 189 269 266 437 334 l36 15 -1 103 -2 103 -100 53 c-55 30 -183 97
-285 150 -102 53 -189 99 -195 103 -5 4 -82 44 -170 90 -88 46 -187 97 -220
115 -33 18 -114 60 -180 95 -66 35 -160 84 -210 110 -49 26 -148 78 -220 115
-71 37 -157 82 -190 100 -155 83 -413 215 -421 215 -5 0 -18 -6 -29 -13z"/>
<path d="M3148 5230 c-20 -11 -47 -36 -60 -57 l-23 -38 -1 -487 -1 -488 21 -1
c28 -1 244 -1 279 0 l28 1 -3 494 c-3 482 -4 495 -24 522 -52 71 -144 94 -216
54z"/>
<path d="M2600 5119 c-84 -52 -83 -43 -84 -552 -1 -395 1 -447 14 -441 59 24
124 32 280 34 l35 0 -1 428 c0 427 -1 428 -23 469 -44 78 -147 107 -221 62z"/>
<path d="M3741 4919 c-39 -8 -76 -34 -105 -73 -20 -26 -21 -42 -24 -357 -2
-263 0 -329 10 -330 19 0 291 -1 305 0 8 1 11 81 11 314 0 274 -3 317 -18 353
-29 67 -108 108 -179 93z"/>
<path d="M4271 4696 c-46 -13 -96 -65 -107 -112 -6 -22 -9 -238 -9 -499 1
-398 4 -464 17 -490 49 -93 164 -121 245 -59 68 52 67 39 68 549 1 253 -3 476
-8 495 -24 92 -115 143 -206 116z"/>
<path d="M856 4583 c-138 -23 -282 -93 -380 -183 -39 -36 -42 -43 -39 -81 2
-24 5 -44 7 -46 2 -3 131 -5 285 -5 270 -1 283 -1 312 -22 17 -11 84 -102 150
-200 96 -146 119 -187 119 -215 0 -29 -23 -71 -115 -211 -64 -96 -127 -186
-141 -200 l-24 -25 -295 -3 c-162 -2 -295 -6 -296 -10 -10 -61 -3 -84 36 -121
233 -223 620 -259 907 -85 84 51 182 145 239 231 27 39 54 75 61 80 7 4 148
10 313 13 l300 5 2 305 c1 168 0 315 -3 326 -4 22 -6 22 -286 22 -170 0 -294
5 -310 11 -16 6 -46 39 -76 83 -108 159 -268 273 -448 318 -103 25 -218 30
-318 13z"/>
<path d="M5894 4583 c-205 -32 -397 -155 -515 -330 -30 -45 -61 -78 -77 -84
-16 -7 -139 -11 -313 -11 l-285 0 -1 -329 0 -329 288 0 c158 0 299 -4 313 -10
14 -5 46 -41 74 -82 166 -246 450 -374 747 -335 116 15 223 58 330 133 87 61
104 82 108 136 l3 47 -298 3 -298 3 -24 25 c-13 14 -76 104 -140 200 -94 141
-116 182 -116 210 0 29 23 71 122 219 74 112 133 190 151 201 27 17 55 18 313
17 246 -2 284 0 285 13 0 8 2 29 3 45 5 61 -150 177 -307 230 -118 39 -233 48
-363 28z"/>
<path d="M2614 3924 c-43 -21 -73 -55 -88 -97 -8 -23 -11 -100 -10 -229 l1
-193 163 -430 162 -430 2 -597 1 -597 210 -144 c116 -80 263 -182 328 -227
l117 -81 120 83 c65 46 211 146 322 222 112 77 206 144 209 148 3 5 5 219 4
476 -1 453 0 469 21 547 22 79 41 144 189 635 42 140 79 264 83 274 5 17 2 18
-34 10 -21 -4 -72 -8 -112 -7 -57 1 -85 7 -136 31 -70 33 -135 86 -167 138
l-21 34 -53 -48 c-117 -103 -249 -152 -430 -157 -65 -1 -121 -7 -122 -12 -2
-5 60 -119 137 -253 189 -330 207 -386 208 -677 l1 -153 -109 0 -110 0 -1 148
c0 178 -5 219 -33 298 -12 33 -107 209 -211 390 -202 351 -209 370 -171 428 9
15 27 31 40 36 12 4 124 10 247 12 201 4 230 7 281 27 57 22 135 76 176 121
57 64 109 193 108 265 -1 20 -9 20 -646 22 -563 2 -649 0 -676 -13z"/>
<path d="M1781 3250 c-44 -60 -144 -160 -196 -198 -27 -20 -52 -37 -54 -38 -7
-6 61 -168 132 -314 140 -289 322 -558 542 -799 127 -140 398 -387 413 -377 4
2 7 224 6 493 l-1 488 -30 80 c-17 44 -51 136 -77 205 -25 69 -51 134 -56 145
-5 11 -34 90 -65 175 -31 85 -61 159 -65 164 -5 5 -125 9 -266 10 l-257 1 -26
-35z"/>
<path d="M4689 3282 c-10 -2 -61 -158 -164 -500 l-150 -497 0 -378 c0 -208 3
-381 7 -383 4 -3 20 6 35 19 188 162 251 222 368 348 220 235 419 529 562 828
59 125 128 290 122 295 -113 81 -162 126 -237 220 l-39 49 -245 1 c-134 1
-251 0 -259 -2z"/>
<path d="M1285 2893 c-66 -23 -154 -40 -236 -45 l-36 -2 28 -72 c53 -137 142
-325 225 -475 86 -154 234 -383 305 -473 185 -233 181 -228 364 -412 201 -202
349 -327 555 -470 47 -32 87 -62 88 -66 2 -5 7 -8 12 -8 4 0 88 -56 187 -124
98 -69 206 -144 241 -168 35 -24 85 -58 110 -76 154 -109 365 -252 372 -252 7
0 744 507 1033 711 234 164 561 460 738 668 132 155 313 409 414 581 104 177
270 527 290 611 6 26 6 26 -67 32 -40 4 -111 17 -157 30 l-83 25 -13 -32 c-64
-156 -87 -206 -151 -332 -252 -495 -625 -935 -1074 -1265 -41 -30 -196 -138
-343 -240 -148 -101 -332 -228 -409 -282 -116 -80 -147 -97 -178 -97 -32 0
-76 27 -308 188 -150 103 -315 216 -368 252 -396 269 -633 475 -868 753 -124
147 -326 429 -326 456 0 6 -4 11 -9 11 -5 0 -11 8 -15 18 -3 9 -29 58 -56 107
-63 111 -142 275 -182 375 -16 41 -33 78 -36 81 -4 4 -25 0 -47 -8z"/>
</g>
</svg>
